HIERARCHY
ROOT Hips
{
	OFFSET 0.000000 0.000000 0.000000 
	CHANNELS 6 Xposition Yposition Zposition Zrotation Yrotation Xrotation
	JOINT LeftUpLeg
	{
		OFFSET 1.363060 -1.794630 0.839290 
		CHANNELS 3 Zrotation Yrotation Xrotation
		JOINT LeftLeg
		{
			OFFSET 2.448110 -6.726130 0.000000 
			CHANNELS 3 Zrotation Yrotation Xrotation
			JOINT LeftFoot
			{
				OFFSET 2.562200 -7.039590 0.000000 
				CHANNELS 3 Zrotation Yrotation Xrotation
				JOINT LeftToeBase
				{
					OFFSET 0.157640 -0.433110 2.322550 
					CHANNELS 3 Zrotation Yrotation Xrotation
					End Site
					{
						OFFSET 0.000000 0.000000 0.000000 
					}
				}
			}
		}
	}
	JOINT RightUpLeg
	{
		OFFSET -1.305520 -1.794630 0.839290 
		CHANNELS 3 Zrotation Yrotation Xrotation
		JOINT RightLeg
		{
			OFFSET -2.542530 -6.985550 0.000000 
			CHANNELS 3 Zrotation Yrotation Xrotation
			JOINT RightFoot
			{
				OFFSET -2.568260 -7.056230 0.000000 
				CHANNELS 3 Zrotation Yrotation Xrotation
				JOINT RightToeBase
				{
					OFFSET -0.164730 -0.452590 2.363150 
					CHANNELS 3 Zrotation Yrotation Xrotation
					End Site
					{
						OFFSET 0.000000 0.000000 0.000000 
					}
				}
			}
		}
	}
	JOINT Spine
	{
		OFFSET 0.028270 2.035590 -0.193380 
		CHANNELS 3 Zrotation Yrotation Xrotation
		JOINT Spine1
		{
			OFFSET 0.056720 2.048850 -0.042750 
			CHANNELS 3 Zrotation Yrotation Xrotation
			JOINT Neck1
			{
				OFFSET -0.054170 1.746240 0.172020 
				CHANNELS 3 Zrotation Yrotation Xrotation
				JOINT Head
				{
					OFFSET 0.104070 1.761360 -0.123970 
					CHANNELS 3 Zrotation Yrotation Xrotation
					End Site
					{
						OFFSET 0.000000 0.000000 0.000000 
					}
				}
			}
			JOINT LeftArm
			{
				OFFSET 3.362410 1.200890 -0.311210 
				CHANNELS 3 Zrotation Yrotation Xrotation
				JOINT LeftForeArm
				{
					OFFSET 4.983000 -0.000000 -0.000000 
					CHANNELS 3 Zrotation Yrotation Xrotation
					JOINT LeftHand
					{
						OFFSET 3.483560 -0.000000 -0.000000 
						CHANNELS 3 Zrotation Yrotation Xrotation
						JOINT LeftHandIndex1
						{
							OFFSET 0.715260 -0.000000 -0.000000 
							CHANNELS 3 Zrotation Yrotation Xrotation
							End Site
							{
								OFFSET 0.000000 0.000000 0.000000 
							}
						}
					}
				}
			}
			JOINT RightArm
			{
				OFFSET -3.136600 1.374050 -0.404650 
				CHANNELS 3 Zrotation Yrotation Xrotation
				JOINT RightForeArm
				{
					OFFSET -5.241900 -0.000000 -0.000000 
					CHANNELS 3 Zrotation Yrotation Xrotation
					JOINT RightHand
					{
						OFFSET -3.444170 -0.000000 -0.000000 
						CHANNELS 3 Zrotation Yrotation Xrotation
						JOINT RightHandIndex1
						{
							OFFSET -0.622530 -0.000000 -0.000000 
							CHANNELS 3 Zrotation Yrotation Xrotation
							End Site
							{
								OFFSET 0.000000 0.000000 0.000000 
							}
						}
					}
				}
			}
		}
	}
}
MOTION
Frames: 6
Frame Time: 0.041667
3.071385 17.309505 -17.407255 -3.758462 -32.441652 -1.919690 -19.202503 10.195164 0.329879 1.016479 7.883494 21.800252 1.361018 -7.763536 -8.222713 0.220300 -3.021200 -8.337700 32.147784 1.384722 -1.919904 -1.877328 -10.874753 30.552354 0.320980 -7.278992 -18.039500 -0.080300 -1.827700 5.029600 1.425693 -0.787063 -0.177436 -2.005482 -0.312452 5.532697 4.405500 -1.694405 16.247478 -0.852900 -0.208100 5.453600 -79.633346 -2.924011 33.171263 11.657188 -24.779102 -3.667610 -0.995692 -1.214645 -24.894694 -7.125000 0.000000 0.000000 76.441757 -2.263669 29.970497 -15.523401 29.445073 -5.336753 0.950892 0.321280 -2.589789 7.125000 0.000000 0.000000 
3.059785 17.302651 -17.414637 -3.815279 -32.247741 -1.942381 -19.109603 10.208702 0.295521 1.035857 7.920608 21.914874 1.367471 -7.757076 -8.346627 0.231100 -3.094000 -8.540500 32.227156 1.204478 -1.952287 -1.891262 -10.896916 30.620643 0.302947 -7.220482 -18.085636 -0.080700 -1.833000 5.044400 1.437387 -0.813137 -0.170849 -2.016146 -0.321621 5.552099 4.412025 -1.713050 16.206159 -0.841400 -0.221200 5.427500 -79.737501 -2.992692 32.984673 11.630472 -24.736246 -3.658664 -1.005438 -1.211030 -24.791157 -7.125000 0.000000 0.000000 76.426898 -2.212603 29.737788 -15.370956 29.281038 -5.271409 0.954863 0.321669 -2.431932 7.125000 0.000000 0.000000 
3.043441 17.292211 -17.415586 -3.621059 -31.907822 -2.257648 -19.198176 10.342618 0.375899 1.062068 7.987322 22.101488 1.396647 -8.010182 -8.441078 0.245400 -3.187900 -8.802200 32.019968 0.694476 -1.869875 -1.919105 -10.900267 30.700375 0.271247 -7.080118 -18.079551 -0.080100 -1.826200 5.025600 1.432848 -0.862476 -0.143421 -2.001436 -0.344427 5.618318 4.451149 -1.769814 16.147340 -0.814800 -0.252400 5.375000 -79.730850 -3.031301 33.032424 11.628947 -24.735130 -3.657069 -1.007607 -1.210414 -24.707272 -7.125000 0.000000 0.000000 76.391401 -2.176079 29.485223 -15.186022 29.086551 -5.192590 0.957408 0.319528 -2.321607 7.125000 0.000000 0.000000 
3.036798 17.293477 -17.439206 -3.774565 -31.986718 -2.035577 -19.026734 10.278320 0.050124 1.091767 8.052324 22.290000 1.388374 -7.881781 -8.508606 0.238600 -3.143600 -8.678700 32.376626 1.223905 -1.965965 -1.909457 -10.935371 30.727991 0.325034 -7.397805 -18.276208 -0.085200 -1.882600 5.181200 1.447713 -0.777290 -0.163268 -1.937648 -0.306639 5.517581 4.496956 -1.774987 16.086338 -0.786600 -0.258300 5.356000 -79.785458 -3.091956 32.955445 11.638915 -24.738135 -3.662962 -1.012883 -1.215600 -24.862043 -7.125000 0.000000 0.000000 76.365830 -2.073013 29.363370 -14.990384 28.855160 -5.100351 0.972111 0.307817 -2.186334 7.125000 0.000000 0.000000 
3.025620 17.289997 -17.452071 -3.772502 -31.870023 -2.050895 -18.980032 10.249579 -0.083292 1.121578 8.121360 22.486812 1.393184 -7.873689 -8.609270 0.243900 -3.178200 -8.775200 32.475474 1.278352 -1.980262 -1.915519 -10.953823 30.772772 0.338356 -7.503048 -18.386333 -0.087200 -1.905100 5.243500 1.455237 -0.764170 -0.160178 -1.891922 -0.301965 5.506145 4.536999 -1.792508 16.031425 -0.759900 -0.270400 5.324900 -79.829885 -3.154956 32.882142 11.623378 -24.714520 -3.657746 -1.017648 -1.215887 -24.870426 -7.125000 0.000000 0.000000 76.339319 -1.982965 29.157541 -14.792407 28.630090 -5.011911 0.979609 0.302492 -2.059614 7.125000 0.000000 0.000000 
3.014232 17.287361 -17.465252 -3.756568 -31.753928 -2.070001 -18.947262 10.187842 -0.246514 1.160343 8.212458 22.744557 1.397959 -7.848350 -8.742191 0.253600 -3.240000 -8.947700 32.567686 1.349864 -1.979788 -1.916822 -10.963816 30.793066 0.356733 -7.631436 -18.501673 -0.089400 -1.928600 5.308400 1.462247 -0.751921 -0.155895 -1.837961 -0.298300 5.500232 4.579958 -1.807251 15.976527 -0.731900 -0.280800 5.293100 -79.874414 -3.227164 32.788714 11.589433 -24.668884 -3.644758 -1.021342 -1.212663 -24.844249 -7.125000 0.000000 0.000000 76.316627 -1.876203 28.930044 -14.581322 28.387816 -4.918046 0.985717 0.298249 -1.941363 7.125000 0.000000 0.000000 
